# xmcd CD database file
#
# Track frame offsets:
#	150
#	34667
#	61143
#	93086
#	125151
#	153887
#	187757
#	218710
#
# Disc length: 3348 seconds
#
# Revision: 0
# Processed by: cddbd v1.5.1PL2 Copyright (c) Steve Scherf et al.
# Submitted via: CDex 1.51
#
DISCID=5d0d1208
DTITLE=Clark Tracey Quintet - The Mighty Sas
DYEAR=2005
DGENRE=Jazz
TTITLE0=The Mighty Sas
TTITLE1=The Camel
TTITLE2=The Green Man
TTITLE3=Nippon Soul
TTITLE4=Online Slam
TTITLE5=Lamia
TTITLE6=Mama Flo
TTITLE7=Choices
EXTD=YEAR: 2005
EXTT0=
EXTT1=
EXTT2=
EXTT3=
EXTT4=
EXTT5=
EXTT6=
EXTT7=
PLAYORDER=
